<svg width="8" height="12" viewBox="0 0 8 12" fill="none" xmlns="http://www.w3.org/2000/svg">
<path d="M1.19329 11.14C1.25527 11.2025 1.329 11.2521 1.41024 11.2859C1.49148 11.3198 1.57862 11.3372 1.66663 11.3372C1.75463 11.3372 1.84177 11.3198 1.92301 11.2859C2.00425 11.2521 2.07798 11.2025 2.13996 11.14L6.80663 6.47333C6.86911 6.41136 6.91871 6.33763 6.95255 6.25639C6.9864 6.17515 7.00383 6.08801 7.00383 6C7.00383 5.91199 6.9864 5.82486 6.95255 5.74362C6.91871 5.66238 6.86911 5.58864 6.80663 5.52667L2.13996 0.860001C2.01442 0.734465 1.84416 0.66394 1.66663 0.66394C1.48909 0.66394 1.31883 0.734465 1.19329 0.860001C1.06776 0.985537 0.997232 1.1558 0.997232 1.33333C0.997232 1.51087 1.06776 1.68113 1.19329 1.80667L5.39329 6L1.19329 10.1933C1.13081 10.2553 1.08121 10.329 1.04737 10.4103C1.01352 10.4915 0.996094 10.5787 0.996094 10.6667C0.996094 10.7547 1.01352 10.8418 1.04737 10.9231C1.08121 11.0043 1.13081 11.078 1.19329 11.14Z" fill="black"/>
</svg>
