<svg width="13" height="12" viewBox="0 0 13 12" fill="none" xmlns="http://www.w3.org/2000/svg">
<path d="M12.25 5.25002H5.49995C5.30104 5.25002 5.11028 5.32903 4.96962 5.46969C4.82897 5.61034 4.74995 5.8011 4.74995 6.00002C4.74995 6.19893 4.82897 6.3897 4.96962 6.53035C5.11028 6.671 5.30104 6.75002 5.49995 6.75002H12.25C12.4489 6.75002 12.6396 6.671 12.7803 6.53035C12.9209 6.3897 13 6.19893 13 6.00002C13 5.8011 12.9209 5.61034 12.7803 5.46969C12.6396 5.32903 12.4489 5.25002 12.25 5.25002Z" fill="black"/>
<path d="M5.71745 11.0325C5.78718 11.1028 5.87013 11.1586 5.96152 11.1967C6.05292 11.2348 6.15095 11.2544 6.24995 11.2544C6.34896 11.2544 6.44699 11.2348 6.53839 11.1967C6.62978 11.1586 6.71273 11.1028 6.78245 11.0325C6.85275 10.9628 6.90855 10.8798 6.94662 10.7885C6.9847 10.6971 7.0043 10.599 7.0043 10.5C7.0043 10.401 6.9847 10.303 6.94662 10.2116C6.90855 10.1202 6.85275 10.0372 6.78245 9.96752L2.80745 6.00002L6.78245 2.03252C6.85238 1.96259 6.90785 1.87957 6.9457 1.7882C6.98354 1.69684 7.00302 1.59891 7.00302 1.50002C7.00302 1.40112 6.98354 1.3032 6.9457 1.21183C6.90785 1.12046 6.85238 1.03745 6.78245 0.967517C6.71252 0.897588 6.62951 0.842117 6.53814 0.804272C6.44677 0.766426 6.34885 0.746948 6.24995 0.746948C6.15106 0.746948 6.05313 0.766426 5.96177 0.804272C5.8704 0.842117 5.78738 0.897588 5.71745 0.967517L1.21745 5.46752C1.14716 5.53724 1.09136 5.62019 1.05329 5.71158C1.01521 5.80298 0.995605 5.90101 0.995605 6.00002C0.995605 6.09903 1.01521 6.19706 1.05329 6.28845C1.09136 6.37984 1.14716 6.46279 1.21745 6.53252L5.71745 11.0325Z" fill="black"/>
</svg>
