<svg width="13" height="12" viewBox="0 0 13 12" fill="none" xmlns="http://www.w3.org/2000/svg">
<path d="M0.75 6.75002H7.5C7.69891 6.75002 7.88968 6.671 8.03033 6.53035C8.17098 6.3897 8.25 6.19893 8.25 6.00002C8.25 5.8011 8.17098 5.61034 8.03033 5.46969C7.88968 5.32903 7.69891 5.25002 7.5 5.25002H0.75C0.551088 5.25002 0.360322 5.32903 0.21967 5.46969C0.0790178 5.61034 0 5.8011 0 6.00002C0 6.19893 0.0790178 6.3897 0.21967 6.53035C0.360322 6.671 0.551088 6.75002 0.75 6.75002Z" fill="black"/>
<path d="M7.2825 0.967517C7.14127 0.826289 6.94973 0.746948 6.75 0.746948C6.55027 0.746948 6.35873 0.826289 6.2175 0.967517C6.07627 1.10874 5.99693 1.30029 5.99693 1.50002C5.99693 1.69974 6.07627 1.89129 6.2175 2.03252L10.1925 6.00002L6.2175 9.96752C6.1472 10.0372 6.09141 10.1202 6.05333 10.2116C6.01525 10.303 5.99565 10.401 5.99565 10.5C5.99565 10.599 6.01525 10.6971 6.05333 10.7885C6.09141 10.8798 6.1472 10.9628 6.2175 11.0325C6.28722 11.1028 6.37017 11.1586 6.46157 11.1967C6.55296 11.2348 6.65099 11.2544 6.75 11.2544C6.84901 11.2544 6.94704 11.2348 7.03843 11.1967C7.12983 11.1586 7.21278 11.1028 7.2825 11.0325L11.7825 6.53252C11.8528 6.46279 11.9086 6.37984 11.9467 6.28845C11.9847 6.19706 12.0043 6.09903 12.0043 6.00002C12.0043 5.90101 11.9847 5.80298 11.9467 5.71158C11.9086 5.62019 11.8528 5.53724 11.7825 5.46752L7.2825 0.967517Z" fill="black"/>
</svg>
