<svg width="60" height="48" viewBox="0 0 60 48" fill="none" xmlns="http://www.w3.org/2000/svg">
<rect x="1" y="1" width="58" height="46" rx="5" fill="white"/>
<path d="M30 32.5C30 31.8078 29.7947 31.1311 29.4101 30.5555C29.0256 29.9799 28.4789 29.5313 27.8394 29.2664C27.1999 29.0015 26.4961 28.9322 25.8172 29.0673C25.1383 29.2023 24.5146 29.5356 24.0251 30.0251C23.5356 30.5146 23.2023 31.1383 23.0673 31.8172C22.9322 32.4961 23.0015 33.1999 23.2664 33.8394C23.5313 34.4789 23.9799 35.0256 24.5555 35.4101C25.1311 35.7947 25.8078 36 26.5 36C27.4283 36 28.3185 35.6313 28.9749 34.9749C29.6313 34.3185 30 33.4283 30 32.5ZM25 32.5C25 32.2033 25.088 31.9133 25.2528 31.6666C25.4176 31.42 25.6519 31.2277 25.926 31.1142C26.2001 31.0007 26.5017 30.9709 26.7926 31.0288C27.0836 31.0867 27.3509 31.2296 27.5607 31.4393C27.7704 31.6491 27.9133 31.9164 27.9712 32.2074C28.0291 32.4983 27.9994 32.7999 27.8858 33.074C27.7723 33.3481 27.58 33.5824 27.3334 33.7472C27.0867 33.912 26.7967 34 26.5 34C26.1022 34 25.7206 33.842 25.4393 33.5607C25.158 33.2794 25 32.8978 25 32.5Z" fill="#76B043"/>
<path d="M40 32.5C40 31.8078 39.7947 31.1311 39.4101 30.5555C39.0256 29.9799 38.4789 29.5313 37.8394 29.2664C37.1999 29.0015 36.4961 28.9322 35.8172 29.0673C35.1383 29.2023 34.5146 29.5356 34.0251 30.0251C33.5356 30.5146 33.2023 31.1383 33.0673 31.8172C32.9322 32.4961 33.0015 33.1999 33.2664 33.8394C33.5313 34.4789 33.9799 35.0256 34.5555 35.4101C35.1311 35.7947 35.8078 36 36.5 36C37.4283 36 38.3185 35.6313 38.9749 34.9749C39.6313 34.3185 40 33.4283 40 32.5ZM36.5 34C36.2033 34 35.9133 33.912 35.6666 33.7472C35.42 33.5824 35.2277 33.3481 35.1142 33.074C35.0007 32.7999 34.9709 32.4983 35.0288 32.2074C35.0867 31.9164 35.2296 31.6491 35.4393 31.4393C35.6491 31.2296 35.9164 31.0867 36.2074 31.0288C36.4983 30.9709 36.7999 31.0007 37.074 31.1142C37.3481 31.2277 37.5824 31.42 37.7472 31.6666C37.912 31.9133 38 32.2033 38 32.5C38 32.8978 37.842 33.2794 37.5607 33.5607C37.2794 33.842 36.8978 34 36.5 34Z" fill="#76B043"/>
<path d="M17 16H20.36L24.05 27.07C24.1171 27.2686 24.2449 27.4411 24.4154 27.5632C24.5858 27.6852 24.7904 27.7505 25 27.75H38C38.2096 27.7505 38.4142 27.6852 38.5846 27.5632C38.7551 27.4411 38.8829 27.2686 38.95 27.07L41.95 18.07C41.9996 17.9196 42.0128 17.7596 41.9884 17.6031C41.9641 17.4467 41.9029 17.2982 41.81 17.17C41.718 17.0408 41.5965 16.9353 41.4557 16.8622C41.3148 16.7892 41.1586 16.7507 41 16.75H31.5C31.2348 16.75 30.9804 16.8554 30.7929 17.0429C30.6054 17.2304 30.5 17.4848 30.5 17.75C30.5 18.0152 30.6054 18.2696 30.7929 18.4571C30.9804 18.6446 31.2348 18.75 31.5 18.75H39.61L37.28 25.75H25.72L22 14.68C21.9346 14.4862 21.8114 14.317 21.6468 14.1954C21.4823 14.0738 21.2845 14.0056 21.08 14H17C16.7348 14 16.4804 14.1054 16.2929 14.2929C16.1054 14.4804 16 14.7348 16 15C16 15.2652 16.1054 15.5196 16.2929 15.7071C16.4804 15.8946 16.7348 16 17 16Z" fill="#76B043"/>
<rect x="1" y="1" width="58" height="46" rx="5" stroke="#76B043" stroke-width="2"/>
</svg>
