<svg width="88" height="30" viewBox="0 0 88 30" fill="none" xmlns="http://www.w3.org/2000/svg">
<path d="M10.4879 21H12.9482V16.1932H17.9425V21H20.397V9.36364H17.9425V14.1648H12.9482V9.36364H10.4879V21ZM26.3232 21.1705C28.9709 21.1705 30.6186 19.358 30.6186 16.6705C30.6186 13.9659 28.9709 12.1591 26.3232 12.1591C23.6754 12.1591 22.0277 13.9659 22.0277 16.6705C22.0277 19.358 23.6754 21.1705 26.3232 21.1705ZM26.3345 19.2955C25.1129 19.2955 24.4879 18.1761 24.4879 16.6534C24.4879 15.1307 25.1129 14.0057 26.3345 14.0057C27.5334 14.0057 28.1584 15.1307 28.1584 16.6534C28.1584 18.1761 27.5334 19.2955 26.3345 19.2955ZM36.8345 12.2727H35.1925V10.1818H32.772V12.2727H31.5788V14.0909H32.772V18.6364C32.7607 20.3466 33.9254 21.1932 35.6811 21.1193C36.3061 21.0966 36.7493 20.9716 36.9936 20.892L36.6129 19.0909C36.4936 19.1136 36.2379 19.1705 36.0107 19.1705C35.5277 19.1705 35.1925 18.9886 35.1925 18.3182V14.0909H36.8345V12.2727ZM49.3757 14.7614C49.1598 13.1534 47.8643 12.1591 45.6598 12.1591C43.4268 12.1591 41.9553 13.1932 41.9609 14.875C41.9553 16.1818 42.7791 17.0284 44.4837 17.3693L45.995 17.6705C46.7564 17.8239 47.103 18.1023 47.1143 18.5398C47.103 19.0568 46.5405 19.4261 45.6939 19.4261C44.8303 19.4261 44.2564 19.0568 44.1087 18.3466L41.728 18.4716C41.9553 20.142 43.3757 21.1705 45.6882 21.1705C47.9496 21.1705 49.5689 20.017 49.5746 18.2955C49.5689 17.0341 48.745 16.2784 47.0518 15.9318L45.4723 15.6136C44.6598 15.4375 44.3587 15.1591 44.3643 14.7386C44.3587 14.2159 44.9496 13.875 45.6996 13.875C46.5405 13.875 47.0405 14.3352 47.1598 14.8977L49.3757 14.7614ZM53.5874 21.1648C54.8771 21.1648 55.7124 20.6023 56.1385 19.7898H56.2067V21H58.5021V15.1136C58.5021 13.0341 56.7408 12.1591 54.7976 12.1591C52.7067 12.1591 51.3317 13.1591 50.9964 14.75L53.2351 14.9318C53.3999 14.3523 53.9169 13.9261 54.7862 13.9261C55.6101 13.9261 56.0817 14.3409 56.0817 15.0568V15.0909C56.0817 15.6534 55.4851 15.7273 53.968 15.875C52.2408 16.0341 50.6896 16.6136 50.6896 18.5625C50.6896 20.2898 51.9226 21.1648 53.5874 21.1648ZM54.2805 19.4943C53.5362 19.4943 53.0021 19.1477 53.0021 18.483C53.0021 17.8011 53.5646 17.4659 54.4169 17.3466C54.9453 17.2727 55.8089 17.1477 56.0987 16.9545V17.8807C56.0987 18.7955 55.343 19.4943 54.2805 19.4943ZM62.8004 9.36364H60.38V21H62.8004V9.36364ZM68.7166 21.1705C70.8757 21.1705 72.3303 20.1193 72.6712 18.5L70.4325 18.3523C70.1882 19.017 69.5632 19.3636 68.7564 19.3636C67.5462 19.3636 66.7791 18.5625 66.7791 17.2614V17.2557H72.7223V16.5909C72.7223 13.625 70.9268 12.1591 68.62 12.1591C66.0518 12.1591 64.3871 13.983 64.3871 16.6761C64.3871 19.4432 66.0291 21.1705 68.7166 21.1705ZM66.7791 15.7557C66.8303 14.7614 67.5859 13.9659 68.6598 13.9659C69.7109 13.9659 70.4382 14.7159 70.4439 15.7557H66.7791ZM77.1939 9.36364H74.6655L74.8928 17.5114H76.9723L77.1939 9.36364ZM75.9325 21.1477C76.6598 21.1477 77.2905 20.5398 77.2962 19.7841C77.2905 19.0398 76.6598 18.4318 75.9325 18.4318C75.1825 18.4318 74.5632 19.0398 74.5689 19.7841C74.5632 20.5398 75.1825 21.1477 75.9325 21.1477Z" fill="#EC2227"/>
<rect x="4" y="4" width="80" height="22" stroke="#EC2227" stroke-width="2"/>
<circle cx="3" cy="27" r="3" fill="#EC2227"/>
<circle cx="85" cy="27" r="3" fill="#EC2227"/>
<circle cx="85" cy="3" r="3" fill="#EC2227"/>
<circle cx="3" cy="3" r="3" fill="#EC2227"/>
</svg>
